<?xml version="1.0" encoding="UTF-8" standalone="no" ?>
<!DOCTYPE svg PUBLIC "-//W3C//DTD SVG 1.1//EN" "http://www.w3.org/Graphics/SVG/1.1/DTD/svg11.dtd">
<svg xmlns="http://www.w3.org/2000/svg" xmlns:xlink="http://www.w3.org/1999/xlink" version="1.1" width="500" height="500" viewBox="0 0 500 500" xml:space="preserve">
<desc>Created with Fabric.js 4.6.0</desc>
<defs>
</defs>
<g transform="matrix(1 0 0 1 250 250)" id="4El7U3ZNm8E3MK_gLwIzs"  >
<path style="stroke: rgb(206,47,163); stroke-width: 0; stroke-dasharray: none; stroke-linecap: butt; stroke-dashoffset: 0; stroke-linejoin: miter; stroke-miterlimit: 4; fill: rgb(255,255,255); fill-rule: nonzero; opacity: 1;" vector-effect="non-scaling-stroke"  transform=" translate(-250, -250)" d="M 250 0 C 388 0 500 112 500 250 C 500 388 388 500 250 500 C 112 500 0 388 0 250 C 0 112 112 0 250 0 z M 69.74027 129.09091 L 84.27947999999999 129.09091 C 87.56742999999999 129.09091 90.51379999999999 131.1214 91.68428999999999 134.19395 L 212.39821999999998 451.06800999999996 C 218.30095999999998 466.56271 233.15932999999998 476.80238999999995 249.74027999999998 476.80238999999995 C 266.32124 476.80238999999995 281.1796 466.5627099999999 287.08234 451.06800999999996 L 407.96844 133.74198999999993 C 409.03526999999997 130.94156999999993 411.72069 129.09090999999992 414.71743 129.09090999999992 L 429.74028 129.09090999999992 L 429.74028 89.09090999999992 L 329.74028 89.09090999999992 L 329.74028 129.09090999999992 L 368.263 129.09090999999992 C 373.1228 129.09090999999992 377.67076 131.48465999999993 380.42206999999996 135.49064999999993 C 383.17337 139.49662999999993 383.77495 144.60075999999992 382.03038 149.13662999999994 L 302.90938 354.85122999999993 C 300.81361 360.30022999999994 295.57841 363.89575999999994 289.74027 363.89575999999994 C 283.90213 363.89575999999994 278.66693000000004 360.30022999999994 276.57116 354.85122999999993 L 196.75150000000002 147.32011999999992 C 195.16502000000003 143.1952799999999 195.71208000000001 138.55367999999993 198.21407000000002 134.9107099999999 C 200.71606000000003 131.26773999999992 204.85189000000003 129.09090999999992 209.27130000000002 129.09090999999992 L 249.74026000000003 129.09090999999992 L 249.74026000000003 89.09090999999992 L 69.74026000000003 89.09090999999992 z" stroke-linecap="round" />
</g>
</svg>