<?xml version="1.0" encoding="UTF-8" standalone="no" ?>
<!DOCTYPE svg PUBLIC "-//W3C//DTD SVG 1.1//EN" "http://www.w3.org/Graphics/SVG/1.1/DTD/svg11.dtd">
<svg xmlns="http://www.w3.org/2000/svg" xmlns:xlink="http://www.w3.org/1999/xlink" version="1.1" width="500" height="500" viewBox="0 0 500 500" xml:space="preserve">
<desc>Created with Fabric.js 4.6.0</desc>
<defs>
</defs>
<g transform="matrix(1 0 0 1 250 250)" id="0nM0m1wmIDANXdC7QZGue"  >
<path style="stroke: rgb(156,108,44); stroke-width: 0; stroke-dasharray: none; stroke-linecap: butt; stroke-dashoffset: 0; stroke-linejoin: miter; stroke-miterlimit: 4; fill: rgb(24,24,24); fill-rule: nonzero; opacity: 1;" vector-effect="non-scaling-stroke"  transform=" translate(-250, -250)" d="M 250 0 C 388 0 500 112 500 250 C 500 388 388 500 250 500 C 112 500 0 388 0 250 C 0 112 112 0 250 0 z M 195 252.5 C 195 285.896 222.10399999999998 313 255.5 313 C 288.896 313 316 285.896 316 252.5 C 316 219.10399999999998 288.896 192 255.5 192 C 222.10399999999998 192 195 219.10399999999998 195 252.5 z" stroke-linecap="round" />
</g>
<g transform="matrix(1 0 0 1 250 250.59)" id="RLkfnCVAgh0y9x9QurPiX"  >
<path style="stroke: rgb(188,242,129); stroke-width: 0; stroke-dasharray: none; stroke-linecap: butt; stroke-dashoffset: 0; stroke-linejoin: miter; stroke-miterlimit: 4; fill: rgb(252,187,29); fill-rule: nonzero; opacity: 1;" vector-effect="non-scaling-stroke"  transform=" translate(-100, -100)" d="M 100 0 C 155.2 0 200 44.8 200 100 C 200 155.2 155.2 200 100 200 C 44.8 200 0 155.2 0 100 C 0 44.8 44.8 0 100 0 z M 60 100 C 60 122.08 77.92 140 100 140 C 122.08 140 140 122.08 140 100 C 140 77.92 122.08 60 100 60 C 77.92 60 60 77.92 60 100 z" stroke-linecap="round" />
</g>
</svg>